#N canvas 0 25 450 300 12;
#X obj 343 265 dac~;
#X obj 343 179 * 2000;
#X obj 343 221 osc~;
#X obj 310 -152 r knob2 @hv_param;
#X obj 383 -180 r knob3 @hv_param;
#X obj 477 -121 r knob4 @hv_param;
#X obj 574 -152 r knob5 @hv_param;
#X obj 647 -180 r knob6 @hv_param;
#X obj 51 -195 nbx 4 18 -1e+37 1e+37 0 0 empty empty empty 0 -8 0 10 #e4e4e4 #373737 #373737 0 256;
#X obj -13 -231 + 1;
#X obj 49 -231 int;
#X obj 49 -157 mod 6;
#X obj 51 -121 nbx 4 18 -1e+37 1e+37 0 0 empty empty empty 0 -8 0 10 #e4e4e4 #373737 #373737 0 256;
#X obj 166 -42 nbx 4 18 -1e+37 1e+37 0 0 empty empty empty 0 -8 0 10 #e4e4e4 #373737 #373737 0 256;
#X obj 164 -75 == 0;
#X obj 253 -44 nbx 4 18 -1e+37 1e+37 0 0 empty empty empty 0 -8 0 10 #e4e4e4 #373737 #373737 0 256;
#X obj 343 -44 nbx 4 18 -1e+37 1e+37 0 0 empty empty empty 0 -8 0 10 #e4e4e4 #373737 #373737 0 256;
#X obj 213 -121 r knob1 @hv_param;
#X obj 430 -44 nbx 4 18 -1e+37 1e+37 0 0 empty empty empty 0 -8 0 10 #e4e4e4 #373737 #373737 0 256;
#X obj 517 -46 nbx 4 18 -1e+37 1e+37 0 0 empty empty empty 0 -8 0 10 #e4e4e4 #373737 #373737 0 256;
#X obj 607 -46 nbx 4 18 -1e+37 1e+37 0 0 empty empty empty 0 -8 0 10 #e4e4e4 #373737 #373737 0 256;
#X obj 251 -77 == 1;
#X obj 341 -77 == 2;
#X obj 428 -77 == 3;
#X obj 515 -79 == 4;
#X obj 605 -79 == 5;
#X obj 202 0 *;
#X obj 299 0 *;
#X obj 372 0 *;
#X obj 466 -2 *;
#X obj 563 -2 *;
#X obj 636 -2 *;
#X obj 607 49 +;
#X obj 420 49 +;
#X obj 253 49 +;
#X obj 343 103 +;
#X obj 343 140 +;
#X obj -13 -371 loadbang;
#X obj -13 -337 tgl 25 0 empty empty empty 17 7 0 10 #e4e4e4 #4d4d4d #373737 0 1;
#X obj -13 -303 metro 100;
#X obj -13 -272 tgl 25 0 empty empty empty 17 7 0 10 #e4e4e4 #4d4d4d #373737 0 1;
#X obj -97 -195 s led0 @hv_param;
#X connect 1 0 2 0;
#X connect 2 0 0 0;
#X connect 2 0 0 1;
#X connect 3 0 27 0;
#X connect 4 0 28 0;
#X connect 5 0 29 0;
#X connect 6 0 30 0;
#X connect 7 0 31 0;
#X connect 8 0 11 0;
#X connect 9 0 10 0;
#X connect 10 0 9 1;
#X connect 10 0 8 0;
#X connect 11 0 12 0;
#X connect 12 0 14 0;
#X connect 12 0 21 0;
#X connect 12 0 22 0;
#X connect 12 0 23 0;
#X connect 12 0 24 0;
#X connect 12 0 25 0;
#X connect 13 0 26 1;
#X connect 14 0 13 0;
#X connect 15 0 27 1;
#X connect 16 0 28 1;
#X connect 17 0 26 0;
#X connect 18 0 29 1;
#X connect 19 0 30 1;
#X connect 20 0 31 1;
#X connect 21 0 15 0;
#X connect 22 0 16 0;
#X connect 23 0 18 0;
#X connect 24 0 19 0;
#X connect 25 0 20 0;
#X connect 26 0 34 0;
#X connect 27 0 34 1;
#X connect 28 0 33 0;
#X connect 29 0 33 1;
#X connect 30 0 32 0;
#X connect 31 0 32 1;
#X connect 32 0 36 1;
#X connect 33 0 35 1;
#X connect 34 0 35 0;
#X connect 35 0 36 0;
#X connect 36 0 1 0;
#X connect 37 0 38 0;
#X connect 38 0 39 0;
#X connect 39 0 40 0;
#X connect 40 0 9 0;
#X connect 40 0 41 0;
