#N canvas 827 239 527 327 12;
#X obj 82 88 r button1 @hv_param;
#X obj 82 176 s led1 @hv_param;
#X obj 82 128 tgl 25 0 empty empty empty 17 7 0 10 #e4e4e4 #4d4d4d #373737 0 1;
#X obj 250 128 tgl 25 0 empty empty empty 17 7 0 10 #e4e4e4 #4d4d4d #373737 0 1;
#X obj 250 88 r button2 @hv_param;
#X obj 250 176 s led2 @hv_param;
#X obj 407 128 tgl 25 0 empty empty empty 17 7 0 10 #e4e4e4 #4d4d4d #373737 0 1;
#X obj 407 176 s led3 @hv_param;
#X obj 407 88 r button3 @hv_param;
#X obj 82 268 tgl 25 0 empty empty empty 17 7 0 10 #e4e4e4 #4d4d4d #373737 0 1;
#X obj 250 268 tgl 25 0 empty empty empty 17 7 0 10 #e4e4e4 #4d4d4d #373737 0 1;
#X obj 407 268 tgl 25 0 empty empty empty 17 7 0 10 #e4e4e4 #4d4d4d #373737 0 1;
#X obj 82 228 r button4 @hv_param;
#X obj 82 316 s led4 @hv_param;
#X obj 250 316 s led5 @hv_param;
#X obj 250 228 r button5 @hv_param;
#X obj 407 228 r button6 @hv_param;
#X obj 407 316 s led6 @hv_param;
#X obj 250 419 tgl 25 0 empty empty empty 17 7 0 10 #e4e4e4 #4d4d4d #373737 0 1;
#X obj 82 419 tgl 25 0 empty empty empty 17 7 0 10 #e4e4e4 #4d4d4d #373737 0 1;
#X obj 82 379 r button7 @hv_param;
#X obj 82 467 s led7 @hv_param;
#X obj 250 379 r button8 @hv_param;
#X obj 250 467 s led8 @hv_param;
#X connect 0 0 2 0;
#X connect 2 0 1 0;
#X connect 3 0 5 0;
#X connect 4 0 3 0;
#X connect 6 0 7 0;
#X connect 8 0 6 0;
#X connect 9 0 13 0;
#X connect 10 0 14 0;
#X connect 11 0 17 0;
#X connect 12 0 9 0;
#X connect 15 0 10 0;
#X connect 16 0 11 0;
#X connect 18 0 23 0;
#X connect 19 0 21 0;
#X connect 20 0 19 0;
#X connect 22 0 18 0;
