#N canvas 827 239 527 327 12;
#X obj 221 171 s cvout1 @hv_param;
#X obj 221 120 r knob1 @hv_param;
#X obj 385 120 r knob2 @hv_param;
#X obj 385 171 s cvout2 @hv_param;
#X obj 195 -87 r cvin1 @hv_param;
#X obj 227 12 tgl 25 0 empty empty empty 17 7 0 10 #e4e4e4 #4d4d4d #373737 0 1;
#X obj 230 63 s led1 @hv_param;
#X obj 227 -22 >;
#X obj 238 -57 0.5;
#X obj 376 12 tgl 25 0 empty empty empty 17 7 0 10 #e4e4e4 #4d4d4d #373737 0 1;
#X obj 376 -22 >;
#X obj 387 -57 0.5;
#X obj 344 -87 r cvin2 @hv_param;
#X obj 379 63 s led2 @hv_param;
#X connect 1 0 0 0;
#X connect 2 0 3 0;
#X connect 4 0 7 0;
#X connect 5 0 6 0;
#X connect 7 0 5 0;
#X connect 8 0 7 1;
#X connect 9 0 13 0;
#X connect 10 0 9 0;
#X connect 11 0 10 1;
#X connect 12 0 10 0;
