#N canvas 0 25 450 300 12;
#X obj 202 42 * 2000;
#X obj 119 42 osc~;
#X obj 119 80 *~;
#X obj 119 0 * 20;
#X obj 139 167 *~;
#X obj 13 124 r knob3 @hv_param;
#X obj 288 249 dac~;
#X obj 150 124 osc~ 440;
#X obj 55 -48 r knob2 @hv_param;
#X obj 203 -48 r knob1 @hv_param;
#X obj 500 42 * 2000;
#X obj 417 42 osc~;
#X obj 417 80 *~;
#X obj 417 0 * 20;
#X obj 437 167 *~;
#X obj 448 124 osc~ 440;
#X obj 501 -48 r knob4 @hv_param;
#X obj 353 -48 r knob5 @hv_param;
#X obj 311 124 r knob6 @hv_param;
#X obj 293 205 +~;
#X connect 0 0 2 1;
#X connect 1 0 2 0;
#X connect 2 0 7 0;
#X connect 3 0 1 0;
#X connect 4 0 19 0;
#X connect 5 0 4 0;
#X connect 7 0 4 1;
#X connect 8 0 3 0;
#X connect 9 0 0 0;
#X connect 10 0 12 1;
#X connect 11 0 12 0;
#X connect 12 0 15 0;
#X connect 13 0 11 0;
#X connect 14 0 19 1;
#X connect 15 0 14 1;
#X connect 16 0 10 0;
#X connect 17 0 13 0;
#X connect 18 0 14 0;
#X connect 19 0 6 0;
#X connect 19 0 6 1;
